<?xml version="1.0" encoding="UTF-8" standalone="no"?>
<!-- Created with Inkscape (http://www.inkscape.org/) -->

<svg
   xmlns:dc="http://purl.org/dc/elements/1.1/"
   xmlns:cc="http://creativecommons.org/ns#"
   xmlns:rdf="http://www.w3.org/1999/02/22-rdf-syntax-ns#"
   xmlns:svg="http://www.w3.org/2000/svg"
   xmlns="http://www.w3.org/2000/svg"
   xmlns:sodipodi="http://sodipodi.sourceforge.net/DTD/sodipodi-0.dtd"
   xmlns:inkscape="http://www.inkscape.org/namespaces/inkscape"
   width="8.4666662mm"
   height="8.4666662mm"
   id="svg2"
   version="1.1"
   inkscape:version="0.91 r13725"
   sodipodi:docname="gam0022_logo.svg"
   inkscape:export-filename="/Users/gam0022/Dropbox/webgl-sandbox/textures/gam0022_512.png"
   inkscape:export-xdpi="1536"
   inkscape:export-ydpi="1536">
  <defs
     id="defs4" />
  <sodipodi:namedview
     id="base"
     pagecolor="#ffffff"
     bordercolor="#666666"
     borderopacity="1.0"
     inkscape:pageopacity="0.0"
     inkscape:pageshadow="2"
     inkscape:zoom="9.0609165"
     inkscape:cx="36.616055"
     inkscape:cy="4.5110831"
     inkscape:document-units="px"
     inkscape:current-layer="layer1"
     showgrid="false"
     inkscape:window-width="1396"
     inkscape:window-height="855"
     inkscape:window-x="44"
     inkscape:window-y="1"
     inkscape:window-maximized="1"
     showguides="true"
     inkscape:guide-bbox="true"
     fit-margin-top="0"
     fit-margin-left="0"
     fit-margin-right="0"
     fit-margin-bottom="0" />
  <metadata
     id="metadata7">
    <rdf:RDF>
      <cc:Work
         rdf:about="">
        <dc:format>image/svg+xml</dc:format>
        <dc:type
           rdf:resource="http://purl.org/dc/dcmitype/StillImage" />
        <dc:title></dc:title>
      </cc:Work>
    </rdf:RDF>
  </metadata>
  <g
     inkscape:label="レイヤー 1"
     inkscape:groupmode="layer"
     id="layer1"
     transform="translate(283.96773,-488.30538)">
    <flowRoot
       xml:space="preserve"
       id="flowRoot3060"
       style="font-style:normal;font-variant:normal;font-weight:600;font-stretch:normal;font-size:40px;line-height:125%;font-family:'Adobe Hebrew';-inkscape-font-specification:'Adobe Hebrew Semi-Bold';letter-spacing:0px;word-spacing:0px;fill:#000000;fill-opacity:1;stroke:none;stroke-width:1px;stroke-linecap:butt;stroke-linejoin:miter;stroke-opacity:1"><flowRegion
         id="flowRegion3062"><rect
           id="rect3064"
           width="85.804985"
           height="72.834465"
           x="-91.791382"
           y="272.13544"
           style="font-style:normal;font-variant:normal;font-weight:600;font-stretch:normal;font-family:'Adobe Hebrew';-inkscape-font-specification:'Adobe Hebrew Semi-Bold'" /></flowRegion><flowPara
         id="flowPara3066" /></flowRoot>    <rect
       inkscape:export-filename="/Users/gam0022/Pictures/inkscape/gam_logo/gam0022_white_1000px.png"
       inkscape:export-ydpi="1536.0001"
       inkscape:export-xdpi="1536.0001"
       y="487.89163"
       x="-283.96774"
       height="31.539595"
       width="67.095703"
       id="rect3023"
       style="fill:#ffffff;fill-opacity:1;stroke:none;stroke-width:3.38888407;stroke-miterlimit:4;stroke-dasharray:none;stroke-opacity:1" />
    <g
       inkscape:export-ydpi="3000"
       inkscape:export-xdpi="3000"
       inkscape:export-filename="/Users/gam0022/Pictures/inkscape/gam_logo/gam0022_1000px.png"
       transform="matrix(0.61007185,0,0,0.64138161,-238.65129,155.88526)"
       style="fill:#000000"
       id="g3025">
      <g
         transform="matrix(0.7615087,0,0,1.3131826,65.193263,22.848575)"
         style="font-style:normal;font-variant:normal;font-weight:normal;font-stretch:normal;font-size:30.46034813px;line-height:125%;font-family:SeichoShonanGyoshoP;-inkscape-font-specification:SeichoShonanGyoshoP;letter-spacing:0px;word-spacing:0px;fill:#000000;fill-opacity:1;stroke:none"
         id="g3027">
        <g
           style="fill:#000000"
           id="g3029">
          <path
             sodipodi:nodetypes="cccccccccccccccscccccccccccsccccccccccccccscccccscccccccscccccccccccccccccccccccccsccc"
             inkscape:connector-curvature="0"
             id="path3031"
             transform="matrix(1.9090144,0,0,1.0390254,304.64302,-127.07167)"
             d="m -243.5625,489.625 0,0.15625 c 0.17378,0.31793 0.32371,0.61992 0.4375,0.9375 0.11378,0.31763 0.22647,0.73709 0.3125,1.25 l 0.75178,7.18661 -2.22182,2.21095 c 0.76172,-1.61721 0.90577,-4.14204 -0.77907,-2.48953 l 0.0304,-3.84553 c 0.37631,-0.43956 0.72101,-0.89192 1.03125,-1.34375 0.31026,-0.45179 0.48654,-0.88317 0.5,-1.25 0.0125,-0.31728 -0.13083,-0.54075 -0.4375,-0.6875 -0.30668,-0.1467 -0.76693,-0.27716 -1.375,-0.375 l -0.0312,0.0937 c 0.0605,0.14675 0.12728,0.26497 0.15625,0.375 0.0293,0.11006 0.0366,0.21471 0.0312,0.3125 -0.01,0.24397 -0.36265,0.91951 -1.03125,2.03125 -0.66864,1.11178 -1.24717,1.98301 -1.75,2.59375 l 0.0312,0.15625 c 0.39043,-0.12166 0.77892,-0.31794 1.1875,-0.5625 0.40859,-0.24453 0.84158,-0.54001 1.28125,-0.90625 l -0.033,3.68928 c -1.36059,1.3688 -3.31452,2.90627 -4.52947,4.68572 0.64028,0.15933 1.38987,0.44167 2.03125,0.0312 0.85351,-1.33671 1.286,-1.8682 1.82051,-2.25712 0.0185,2.56584 -2.01077,4.94529 -3.28926,7.10087 -0.2875,0.54963 -0.58217,1.03598 -0.90625,1.5 0.0759,0.43959 0.15531,0.91068 0.25,1.375 0.0948,0.46434 0.2156,0.6875 0.375,0.6875 0.13309,0 0.26195,-0.0788 0.375,-0.25 0.11305,-0.17118 0.23039,-0.4259 0.375,-0.71875 l 3.28691,-5.54007 -0.21036,9.24282 c -0.58311,-0.29608 -0.88788,-1.54978 -1.33473,-2.11841 0.53009,1.76309 0.92691,3.08923 1.49995,4.28125 0.0666,0 0.0804,-0.0397 0.0937,-0.125 l 0.49337,-11.78874 c 0.48451,-0.83083 1.10852,-1.91717 1.63976,-2.57685 0.53119,-0.65965 1.07838,-1.23025 1.65625,-1.71875 l 0.4375,5.6875 c -0.8081,1.4941 -2.12814,2.91589 -3.0625,3.65625 1.17784,-0.60129 3.26624,-2.76355 3.25,-2.65625 0.49323,2.00344 0.9611,4.49924 1.53125,6.0625 0.57007,1.56327 1.10655,2.34375 1.625,2.34375 0.17301,0 0.32392,-0.17726 0.4375,-0.53125 0.11356,-0.35399 0.17105,-0.74053 0.1875,-1.15625 0.0163,-0.41512 -0.0757,-1.7265 -0.28125,-3.9375 -0.20558,-2.211 -0.31567,-2.46052 -0.34375,-3.4375 -0.0785,1.31934 -0.19333,1.2024 -0.3125,2.375 -0.11914,1.17261 -0.21471,1.78125 -0.28125,1.78125 -0.19933,0 -0.35709,-0.16337 -0.53125,-0.46875 -0.17417,-0.30537 -0.40007,-0.74385 -0.625,-1.28125 -0.22496,-0.53738 -0.37387,-0.97043 -0.5,-1.3125 -0.12615,-0.34205 -0.2481,-0.70248 -0.3125,-1.09375 1.5907,-1.40904 6.18952,-5.70082 1.125,-6.5625 0.50918,2.14111 -0.34159,3.65912 -1.25,5.21875 -0.22676,-1.2279 -0.49645,-3.76138 -0.5625,-5.15625 0.22127,-0.22006 0.81729,-0.63481 1.0625,-0.78125 0.24516,-0.14641 0.49313,-0.29619 0.75,-0.40625 0.25693,-0.11003 0.43316,-0.17666 0.5625,-0.25 0.12927,-0.0734 0.25819,-0.18342 0.375,-0.28125 0.1168,-0.0978 0.23445,-0.19051 0.3125,-0.3125 0.0782,-0.12195 0.11976,-0.25951 0.125,-0.40625 0.0143,-0.3662 -0.1162,-0.66033 -0.375,-0.84375 -0.25882,-0.18338 -0.53334,-0.24998 -0.8125,-0.25 -0.30581,2e-5 -0.57531,0.11146 -0.84375,0.34375 -0.26854,0.23233 -0.92693,0.84168 -1.25,1.28125 -0.0849,-0.87974 -0.0897,-2.53038 -0.0893,-3.55627 5.6e-4,-1.02586 0.33965,-1.57075 0.40175,-2.47498 0.003,-1.09921 -0.24254,-1.86036 -0.75,-2.3125 -0.50748,-0.45207 -1.09191,-0.67389 -1.71875,-0.625 z m 5.40625,2.5 c -0.2925,2e-5 -0.56165,0.0655 -0.8125,0.1875 -0.25086,0.12199 -0.48995,0.33157 -0.6875,0.625 l 0.0312,0.125 c 0.25066,0.0483 0.48791,0.23103 0.75,0.5 0.26211,0.26902 0.387,0.55092 0.375,0.84375 -0.009,0.22011 -0.0755,0.54142 -0.21875,0.96875 -0.14325,0.42737 -0.29224,0.77587 -0.4375,1.09375 0.31265,-0.51291 0.58958,-0.86851 0.8125,-1.125 0.22284,-0.25645 0.46309,-0.49185 0.75,-0.6875 0.2327,-0.17116 0.43615,-0.36035 0.5625,-0.53125 0.12635,-0.17086 -0.60632,-0.40083 -0.59375,-0.71875 0.0154,-0.39064 0.67171,-0.70546 0.375,-0.9375 -0.29665,-0.23199 -0.60046,-0.34373 -0.90625,-0.34375 z"
             style="fill:#000000;stroke:#000000;stroke-width:0.2;stroke-miterlimit:4;stroke-dasharray:none;stroke-opacity:1" />
          <path
             style="fill:#000000;stroke:#000000;stroke-width:0.28167459;stroke-miterlimit:4;stroke-dasharray:none;stroke-opacity:1"
             sodipodi:nodetypes="ccccccccccccccccccccccccccccccccsccccccccccccccsccccccccccccccscccscscccccccccccccccccccccccccccccccccccccccccccccccc"
             inkscape:connector-curvature="0"
             id="path3033"
             d="m -145.13894,380.80274 c 3.71396,0.69205 6.70518,2.26784 5.09626,3.61872 -0.0441,0.31474 -4.76156,3.68491 -4.90384,4.04037 1.36857,-0.24655 5.35286,-2.49066 6.84734,-3.10093 0.97129,-0.48703 3.26997,-0.83273 4.53455,-0.36712 l 1.6083,0.76739 c -3.00879,1.14762 -5.62634,2.57386 -7.6749,4.12591 -0.43908,0.34212 -1.21966,1.05305 -1.33087,1.16194 l -0.22158,-0.0559 2.68857,-4.33396 c -0.97318,0.0823 -1.04999,0.0869 -1.88342,0.33338 -0.83321,0.24659 -1.49777,0.49983 -1.99342,0.75973 -0.49592,0.25994 -1.14582,0.64983 -1.95018,1.16966 -0.80439,0.51987 -1.31628,0.76609 -1.53616,0.73867 -0.8184,-0.58181 -0.28365,-2.01745 0.0872,-2.76863 1.18984,-2.0177 2.20952,-4.67457 0.63215,-6.08919 z m 4.96435,10.95162 c 0.0875,0.16439 0.18664,0.42448 0.29875,0.78026 0.11251,0.35583 0.18158,0.53374 0.20815,0.53371 0.57436,-1.02363 1.19875,-2.11086 2.0348,-2.83242 1.1783,-0.12032 1.03269,1.27616 1.27496,1.92937 0.84829,-1.00534 1.36279,-1.88384 2.06961,-2.9562 0.23547,-0.35579 0.50332,-0.6842 0.80355,-0.98524 0.29997,-0.301 0.62388,-0.45151 0.97151,-0.45153 0.42861,2e-5 0.79635,0.096 1.10275,0.28766 0.30658,0.19179 0.50973,0.53389 0.6099,1.02633 0.0678,0.3281 0.0527,0.65634 -0.0415,0.98474 -0.0942,0.32842 -0.25076,0.80768 -0.47055,1.43775 0.69585,3e-5 1.39952,0.13684 2.11076,0.41043 0.7112,0.27364 1.10865,0.61559 1.19185,1.02583 0.0266,0.137 -0.10101,0.26028 -0.38646,0.36985 -0.28546,0.1096 -0.62482,0.18476 -1.01807,0.22551 -0.39328,0.0408 -0.89501,0.0748 -1.50491,0.10221 -0.60995,0.0274 -0.9791,0.0548 -1.10744,0.0822 -0.11056,0.24657 -1.61356,1.11751 -2.02073,2.14382 -0.40697,1.02634 2.04807,1.70956 1.86361,2.11981 1.99608,-0.0548 3.67145,-0.0665 4.46625,-0.10725 0.79477,-0.0408 1.48361,-0.0748 2.06677,-0.10222 0.0487,-0.0274 0.2283,-0.0617 0.54123,-0.10275 0.31287,-0.0411 0.53606,-0.0617 0.67003,-0.0617 0.66906,10e-6 1.57013,0.219 2.70296,0.65699 1.13253,0.438 1.76284,0.97172 1.89067,1.60113 0.0447,0.21851 -0.0577,0.3757 -0.30557,0.47157 -0.24795,0.0959 -0.58635,0.14384 -1.01496,0.14383 -0.428,1e-5 -1.72717,-0.17105 -3.89776,-0.51317 -2.17039,-0.3421 -3.7214,-0.49945 -4.65277,-0.47207 l -3.21045,0 c -0.71978,1.06711 -1.56931,1.5071 -2.475,2.05467 -0.90573,0.54759 -2.78765,1.48972 -4.37864,2.09175 0.1451,0.0548 1.47547,0.24639 2.09102,0.5748 0.61553,0.32841 1.81285,0.79563 2.21405,0.79563 l 1.7694,-1.9751 c 1.69589,-1.39995 1.86611,0.52135 2.62269,0.75423 2.06335,-2.21105 5.47345,-2.67919 5.61162,-0.60527 -0.003,2.09812 -4.61765,5.22348 -8.44492,6.70193 2.5345,-1.2665 2.71896,-5.67359 2.21372,-4.48488 -2.22083,2.75085 -0.57608,-2.10366 -2.1375,-1.79847 -1.07443,1.36634 -2.4318,2.86392 -2.23364,3.83446 -2.45979,-0.42375 -2.86161,-0.7391 -3.11402,-2.27115 -2.98972,-1.91312 -3.38314,1.28386 -4.53753,2.61383 -0.29468,0 -1.48746,-0.32103 -1.84306,-1.01894 -0.35586,-0.69792 -0.54344,-1.2931 -0.56297,-1.78555 1.81108,-0.43833 5.69166,-1.19211 7.29645,-2.05407 1.60477,-0.86196 4.2938,-2.01126 5.42821,-3.40711 -1.34202,0.1096 -3.8106,0.30106 -4.76694,0.53359 -0.95634,0.23253 -1.94418,0.57464 -2.96329,1.02632 -1.01889,0.4517 -0.17793,0.28208 -0.86626,0.5831 -0.68835,0.30102 -1.2867,0.45153 -1.79503,0.45152 -0.61551,10e-6 -1.2268,-0.14365 -1.83409,-0.43097 -0.6073,-0.28732 -1.18259,-0.65014 -1.72635,-1.08847 l -0.002,-0.20448 c 1.13391,-0.0822 2.2247,-0.24654 3.27188,-0.49311 1.04743,-0.24656 0.83547,-0.0427 2.75397,-0.48036 -0.11455,-1.39508 -2.81798,-2.24056 -3.02626,-2.78025 -0.54072,-0.0274 -1.08751,-0.11641 -1.64013,-0.26711 -0.55263,-0.15065 -1.01723,-0.36297 -1.39358,-0.63695 l -0.0302,-0.16337 c 0.26614,-0.13696 0.72641,-0.30818 1.38059,-0.51365 0.65415,-0.20546 1.07208,-0.32189 1.25403,-0.3493 -0.0774,-0.90271 -0.1384,-1.6347 -0.18551,-2.19598 -0.0481,-0.56126 -0.0289,-1.10182 0.0519,-1.62169 l 0.15402,0.16437 c 0.3502,0.27397 0.45444,0.76606 0.68822,1.2585 0.60705,0.90896 0.41605,2.57624 0.2793,1.71099 l 2.50878,-3.08864 c 1.06842,-0.50951 -1.29044,1.92418 -1.72668,2.7534 -0.28339,0.56766 -0.0469,0.4416 -0.0434,0.55571 l 1.9128,-0.61995 -0.169,-2.98093 0.11109,-0.0411 c 0.15065,0.0823 0.33545,0.24218 0.49996,0.39284 0.16449,0.1507 0.32544,0.37392 0.53725,0.75677 z m 6.18974,0.0411 c 0.11102,-0.24588 0.208,-0.72463 0.2912,-1.43626 0.0831,-0.7116 0.10533,-1.16329 0.0662,-1.35508 -0.85415,1.05334 -1.82062,2.11198 -2.26076,3.10374 0.5676,-0.0252 1.37227,-0.20269 1.90336,-0.3124 z m -2.88193,4.20855 c -0.27026,1.10853 1.17511,2.12806 0.88643,2.15478 -1.99771,-1.02454 -2.01728,-2.28946 -2.05342,-3.57099 l -0.94268,0.27129 c -0.15408,0.16438 -0.57785,0.69112 -0.72528,1.74484 -0.14722,1.05373 2.11076,1.74936 1.84288,1.74935 -0.34762,1e-5 -1.43572,-0.40346 -2.27419,-0.90409 -0.52828,-0.4999 -1.20044,-1.15372 -0.22281,-2.1971 -0.22955,0.0548 -1.17158,0.41667 -1.35018,0.52591 -0.17887,0.10926 -0.31842,0.24607 -0.41913,0.41043 0.87991,1.02397 1.08881,1.84325 1.28749,3.109 1.21231,-0.35547 2.31428,-0.62909 3.30567,-0.82088 0.9916,-0.19174 3.24975,-0.42799 4.49665,-0.48279 0.34902,-0.51984 -2.27491,-1.23068 -2.02039,-1.88751 0.25472,-0.65682 0.49951,-1.39583 0.73387,-2.21703 -0.26726,10e-6 -0.49721,0.0206 -0.68963,0.0617 -0.1927,0.0411 -1.07455,0.14321 -1.27704,0.19794 -0.44824,0.61839 -0.43147,1.23677 -0.57824,1.85515 z" />
        </g>
      </g>
    </g>
  </g>
</svg>
