# Alias OBJ Model File
# Exported from SketchUp, (c) 2000-2012 Trimble Navigation Limited
# File units = meters

mtllib baguette.mtl

g Mesh1 Model

usemtl _1
v 14 -9.7458e-15 -7
vt -551.181 227.789
vn 0 -0.82655 -0.562863
v 1.66525 -1.134 -5.33475
vt -65.5611 148.471
v 0 -9.7458e-15 -7
vt 0 227.789
f 1/1/1 2/2/1 3/3/1

v 12.3347 -1.134 -5.33475
vt -485.62 148.471
f 2/2/1 1/1/1 4/4/1

vt -210.029 376.26
vn -0.562863 0.82655 -9.71981e-16
v 14 0 -0
vt -9.51809e-13 455.579
vt -275.591 455.579
f 4/5/2 5/6/2 1/7/2

v 12.3347 -1.134 -1.66525
vt -65.5611 376.26
f 5/6/2 4/5/2 6/8/2

vt -210.029 428.115
vn -0.396498 0.918036 -3.59079e-16
v 10.5 -1.92642 -3.5
vt -137.795 349.431
vt -65.5611 428.115
f 4/9/3 7/10/3 6/11/3

v 3.5 -1.92642 -3.5
vt -137.795 96.4293
vn 1.05519e-18 -0.918036 -0.396498
vt -485.62 175.113
vt -413.386 96.4293
f 8/12/4 4/13/4 7/14/4

vt -65.5611 175.113
f 4/13/4 8/12/4 2/15/4

vt -137.795 -156.573
vn -0.396498 -0.918036 3.59079e-16
v 1.66525 -1.134 -1.66525
vt -65.5611 -77.8893
vt -210.029 -77.8893
f 8/16/5 9/17/5 2/18/5

vt 137.795 -156.573
vn 1.05519e-18 -0.918036 0.396498
vt 485.62 -77.8893
vt 65.5611 -77.8893
f 8/19/6 6/20/6 9/21/6

vt 413.386 -156.573
f 6/20/6 8/19/6 7/22/6

vt 551.181 0
vn 0 -0.82655 0.562863
vt 65.5611 -79.3189
vt 485.62 -79.3189
f 5/23/7 9/24/7 6/25/7

v 0 0 -0
vt 0 0
f 9/24/7 5/23/7 10/26/7

vt 551.181 -1.39751e-14
vn 1.72661e-17 0.82655 0.562863
v 1.66525 1.134 -1.66525
vt 65.5611 79.3189
f 5/27/8 11/28/8 10/26/8

v 12.3347 1.134 -1.66525
vt 485.62 79.3189
f 11/28/8 5/27/8 12/29/8

vt -7.84193e-13 -455.579
vn 0.562863 0.82655 -8.00814e-16
v 12.3347 1.134 -5.33475
vt 210.029 -376.26
vt 65.5611 -376.26
f 5/30/9 13/31/9 12/32/9

vt 275.591 -455.579
f 13/31/9 5/30/9 1/33/9

vt -551.181 -227.789
vn -4.96103e-17 0.82655 -0.562863
v 1.66525 1.134 -5.33475
vt -65.5611 -148.471
vt -485.62 -148.471
f 1/34/10 14/35/10 13/36/10

vt -2.42904e-14 -227.789
f 14/35/10 1/34/10 3/37/10

vt 210.029 79.3189
vn 0.562863 -0.82655 9.2678e-16
vt 275.591 -5.91033e-13
f 14/38/11 10/26/11 3/39/11

f 10/26/11 14/38/11 11/28/11

vt -485.62 210.029
vn 2.36814e-16 -1 -1.96733e-16
vt -65.5611 65.5611
vt -65.5611 210.029
f 13/40/12 11/41/12 14/42/12

vt -485.62 65.5611
f 11/41/12 13/40/12 12/43/12

vt -210.029 -79.3189
vn -0.562863 -0.82655 9.68099e-16
vt -275.591 -6.07754e-13
f 2/44/13 10/26/13 3/45/13

vt -65.5611 -79.3189
f 10/26/13 2/44/13 9/46/13

