# Blender v2.76 (sub 0) OBJ File: ''
# www.blender.org
mtllib diamond3.mtl
o Diamond_Mesh
v 0.289374 0.537138 0.343748
v 0.072455 0.085407 -0.048061
v 0.071678 -0.066997 -0.176093
v 0.166379 0.085354 -0.081732
v 0.071678 -0.066997 -0.176093
v 0.072455 0.085407 -0.048061
v -0.139570 0.537972 0.345434
v -0.032136 0.085209 -0.070386
v -0.321895 0.538897 0.224655
v -0.032136 0.085209 -0.070386
v -0.139570 0.537972 0.345434
v -0.230692 0.559279 0.285143
v -0.077348 0.751417 -0.535238
v -0.273678 0.666008 -0.530440
v -0.256728 0.750867 -0.342849
v 0.075177 0.579045 0.387443
v 0.182275 0.558091 0.365595
v 0.289455 0.578829 0.343943
v 0.077907 0.666853 0.281374
v 0.075095 0.537355 0.387247
v 0.182275 0.558091 0.365595
v 0.075177 0.579045 0.387443
v -0.032197 0.558508 0.366439
v -0.139489 0.579662 0.345630
v -0.032197 0.558508 0.366439
v 0.075177 0.579045 0.387443
v 0.077907 0.666853 0.281374
v -0.139570 0.537972 0.345434
v -0.032197 0.558508 0.366439
v -0.139489 0.579662 0.345630
v -0.230692 0.559279 0.285143
v -0.321813 0.580587 0.224851
v -0.230692 0.559279 0.285143
v -0.139489 0.579662 0.345630
v -0.249005 0.667270 0.138899
v -0.321895 0.538897 0.224655
v -0.230692 0.559279 0.285143
v -0.321813 0.580587 0.224851
v -0.382965 0.560287 0.134074
v -0.444035 0.581677 0.043492
v -0.382965 0.560287 0.134074
v -0.321813 0.580587 0.224851
v -0.249005 0.667270 0.138899
v -0.444117 0.539987 0.043297
v -0.382965 0.560287 0.134074
v -0.444035 0.581677 0.043492
v -0.465832 0.561377 -0.063769
v -0.487547 0.582767 -0.170834
v -0.465832 0.561377 -0.063769
v -0.444035 0.581677 0.043492
v -0.394201 0.666973 -0.186451
v -0.487630 0.541078 -0.171030
v -0.465832 0.561377 -0.063769
v -0.487547 0.582767 -0.170834
v -0.466678 0.562385 -0.278266
v -0.445728 0.583692 -0.385499
v -0.466678 0.562385 -0.278266
v -0.487547 0.582767 -0.170834
v -0.394201 0.666973 -0.186451
v -0.445810 0.542002 -0.385693
v -0.466678 0.562385 -0.278266
v -0.445728 0.583692 -0.385499
v -0.385377 0.563156 -0.476754
v -0.324941 0.584310 -0.567817
v -0.385377 0.563156 -0.476754
v -0.445728 0.583692 -0.385499
v -0.273678 0.666008 -0.530440
v -0.325023 0.542620 -0.568013
v -0.385377 0.563156 -0.476754
v -0.324941 0.584310 -0.567817
v -0.234300 0.563573 -0.629024
v -0.143577 0.584526 -0.690036
v -0.234300 0.563573 -0.629024
v -0.324941 0.584310 -0.567817
v -0.273678 0.666008 -0.530440
v -0.143659 0.542836 -0.690232
v -0.234300 0.563573 -0.629024
v -0.143577 0.584526 -0.690036
v -0.036453 0.563573 -0.711889
v 0.070753 0.584310 -0.733546
v -0.036453 0.563573 -0.711889
v -0.143577 0.584526 -0.690036
v 0.077309 0.666720 -0.667414
v 0.070671 0.542620 -0.733741
v -0.036453 0.563573 -0.711889
v 0.070753 0.584310 -0.733546
v 0.178045 0.563156 -0.712733
v 0.285418 0.583693 -0.691725
v 0.178045 0.563156 -0.712733
v 0.070753 0.584310 -0.733546
v 0.077309 0.666720 -0.667414
v 0.285336 0.542002 -0.691918
v 0.178045 0.563156 -0.712733
v 0.285418 0.583693 -0.691725
v 0.376544 0.562387 -0.631421
v 0.467734 0.582767 -0.570935
v 0.376544 0.562387 -0.631421
v 0.285418 0.583693 -0.691725
v 0.420928 0.666137 -0.533388
v 0.467652 0.541078 -0.571130
v 0.376544 0.562387 -0.631421
v 0.467734 0.582767 -0.570935
v 0.528799 0.561378 -0.480350
v 0.589946 0.581678 -0.389570
v 0.528799 0.561378 -0.480350
v 0.467734 0.582767 -0.570935
v 0.420928 0.666137 -0.533388
v 0.589864 0.539988 -0.389766
v 0.528799 0.561378 -0.480350
v 0.589946 0.581678 -0.389570
v 0.611658 0.560287 -0.282504
v 0.633451 0.580587 -0.175243
v 0.611658 0.560287 -0.282504
v 0.589946 0.581678 -0.389570
v 0.557961 0.666459 -0.185695
v 0.633369 0.538897 -0.175438
v 0.611658 0.560287 -0.282504
v 0.633451 0.580587 -0.175243
v 0.612495 0.559280 -0.068010
v 0.591622 0.579663 0.039418
v 0.612495 0.559280 -0.068010
v 0.633451 0.580587 -0.175243
v 0.557961 0.666459 -0.185695
v 0.591540 0.537973 0.039223
v 0.612495 0.559280 -0.068010
v 0.591622 0.579663 0.039418
v 0.531183 0.558509 0.130478
v 0.470826 0.579045 0.221733
v 0.531183 0.558509 0.130478
v 0.591622 0.579663 0.039418
v 0.422783 0.666035 0.155137
v 0.470744 0.537355 0.221538
v 0.531183 0.558509 0.130478
v 0.470826 0.579045 0.221733
v 0.380100 0.558091 0.282740
v 0.289455 0.578829 0.343943
v 0.380100 0.558091 0.282740
v 0.470826 0.579045 0.221733
v 0.422783 0.666035 0.155137
v 0.071678 -0.066997 -0.176093
v -0.028752 0.085257 -0.275312
v -0.143659 0.542836 -0.690232
v 0.071433 0.085312 -0.311621
v 0.071678 -0.066997 -0.176093
v 0.071433 0.085312 -0.311621
v 0.285336 0.542002 -0.691918
v 0.168189 0.085311 -0.272376
v 0.071678 -0.066997 -0.176093
v 0.203997 0.085360 -0.175938
v 0.591540 0.537973 0.039223
v 0.166379 0.085354 -0.081732
v 0.071678 -0.066997 -0.176093
v -0.082105 0.085143 -0.174701
v -0.445810 0.542002 -0.385693
v -0.028752 0.085257 -0.275312
v -0.444117 0.539987 0.043297
v -0.032136 0.085209 -0.070386
v -0.321895 0.538897 0.224655
v -0.382965 0.560287 0.134074
v 0.071678 -0.066997 -0.176093
v -0.032136 0.085209 -0.070386
v -0.444117 0.539987 0.043297
v -0.082105 0.085143 -0.174701
v 0.289374 0.537138 0.343748
v 0.182275 0.558091 0.365595
v 0.075095 0.537355 0.387247
v 0.072455 0.085407 -0.048061
v -0.139570 0.537972 0.345434
v 0.072455 0.085407 -0.048061
v 0.075095 0.537355 0.387247
v -0.032197 0.558508 0.366439
v -0.139489 0.579662 0.345630
v 0.077907 0.666853 0.281374
v -0.055197 0.748232 0.134843
v -0.249005 0.667270 0.138899
v 0.232931 0.746939 0.130070
v 0.077907 0.666853 0.281374
v 0.289455 0.578829 0.343943
v 0.422783 0.666035 0.155137
v 0.421983 0.747546 -0.064576
v 0.422783 0.666035 0.155137
v 0.591622 0.579663 0.039418
v 0.557961 0.666459 -0.185695
v 0.589946 0.581678 -0.389570
v 0.420928 0.666137 -0.533388
v 0.417763 0.749313 -0.354767
v 0.557961 0.666459 -0.185695
v 0.285418 0.583693 -0.691725
v 0.077309 0.666720 -0.667414
v 0.219315 0.750882 -0.545293
v 0.420928 0.666137 -0.533388
v -0.143577 0.584526 -0.690036
v -0.273678 0.666008 -0.530440
v -0.077348 0.751417 -0.535238
v 0.077309 0.666720 -0.667414
v -0.445728 0.583692 -0.385499
v -0.394201 0.666973 -0.186451
v -0.256728 0.750867 -0.342849
v -0.273678 0.666008 -0.530440
v -0.444035 0.581677 0.043492
v -0.249005 0.667270 0.138899
v -0.250640 0.749493 -0.052215
v -0.394201 0.666973 -0.186451
v 0.420928 0.666137 -0.533388
v 0.219315 0.750882 -0.545293
v 0.417763 0.749313 -0.354767
v 0.421983 0.747546 -0.064576
v 0.557961 0.666459 -0.185695
v 0.417763 0.749313 -0.354767
v 0.422783 0.666035 0.155137
v 0.421983 0.747546 -0.064576
v 0.232931 0.746939 0.130070
v -0.055197 0.748232 0.134843
v 0.077907 0.666853 0.281374
v 0.232931 0.746939 0.130070
v -0.250640 0.749493 -0.052215
v -0.249005 0.667270 0.138899
v -0.055197 0.748232 0.134843
v -0.394201 0.666973 -0.186451
v -0.250640 0.749493 -0.052215
v -0.256728 0.750867 -0.342849
v -0.444117 0.539987 0.043297
v -0.465832 0.561377 -0.063769
v -0.487630 0.541078 -0.171030
v -0.082105 0.085143 -0.174701
v 0.289374 0.537138 0.343748
v 0.380100 0.558091 0.282740
v 0.289455 0.578829 0.343943
v 0.182275 0.558091 0.365595
v 0.289374 0.537138 0.343748
v 0.166379 0.085354 -0.081732
v 0.470744 0.537355 0.221538
v 0.380100 0.558091 0.282740
v 0.591540 0.537973 0.039223
v 0.531183 0.558509 0.130478
v 0.470744 0.537355 0.221538
v 0.166379 0.085354 -0.081732
v 0.633369 0.538897 -0.175438
v 0.612495 0.559280 -0.068010
v 0.591540 0.537973 0.039223
v 0.203997 0.085360 -0.175938
v 0.467652 0.541078 -0.571130
v 0.528799 0.561378 -0.480350
v 0.589864 0.539988 -0.389766
v 0.168189 0.085311 -0.272376
v 0.285336 0.542002 -0.691918
v 0.376544 0.562387 -0.631421
v 0.467652 0.541078 -0.571130
v 0.168189 0.085311 -0.272376
v 0.070671 0.542620 -0.733741
v 0.178045 0.563156 -0.712733
v 0.285336 0.542002 -0.691918
v 0.071433 0.085312 -0.311621
v -0.143659 0.542836 -0.690232
v -0.036453 0.563573 -0.711889
v 0.070671 0.542620 -0.733741
v 0.071433 0.085312 -0.311621
v -0.325023 0.542620 -0.568013
v -0.234300 0.563573 -0.629024
v -0.143659 0.542836 -0.690232
v -0.028752 0.085257 -0.275312
v -0.445810 0.542002 -0.385693
v -0.385377 0.563156 -0.476754
v -0.325023 0.542620 -0.568013
v -0.028752 0.085257 -0.275312
v -0.487630 0.541078 -0.171030
v -0.466678 0.562385 -0.278266
v -0.445810 0.542002 -0.385693
v -0.082105 0.085143 -0.174701
v 0.219315 0.750882 -0.545293
v 0.077309 0.666720 -0.667414
v -0.077348 0.751417 -0.535238
v -0.250640 0.749493 -0.052215
v -0.055197 0.748232 0.134843
v 0.232931 0.746939 0.130070
v -0.250640 0.749493 -0.052215
v 0.232931 0.746939 0.130070
v 0.421983 0.747546 -0.064576
v -0.256728 0.750867 -0.342849
v -0.250640 0.749493 -0.052215
v 0.421983 0.747546 -0.064576
v -0.256728 0.750867 -0.342849
v 0.421983 0.747546 -0.064576
v 0.417763 0.749313 -0.354767
v -0.077348 0.751417 -0.535238
v -0.256728 0.750867 -0.342849
v 0.417763 0.749313 -0.354767
v -0.077348 0.751417 -0.535238
v 0.417763 0.749313 -0.354767
v 0.219315 0.750882 -0.545293
v 0.611658 0.560287 -0.282504
v 0.633369 0.538897 -0.175438
v 0.203997 0.085360 -0.175938
v 0.611658 0.560287 -0.282504
v 0.203997 0.085360 -0.175938
v 0.071678 -0.066997 -0.176093
v 0.611658 0.560287 -0.282504
v 0.071678 -0.066997 -0.176093
v 0.168189 0.085311 -0.272376
v 0.611658 0.560287 -0.282504
v 0.168189 0.085311 -0.272376
v 0.589864 0.539988 -0.389766
vt 0.000000 0.000000
vt 1.000000 0.000000
vt 1.000000 1.000000
vt 0.000000 1.000000
vn 0.246600 -0.681600 0.688900
vn -0.152700 -0.675300 0.721500
vn -0.421800 -0.650400 0.631700
vn -0.380500 0.855000 -0.352400
vn 0.144800 0.688900 0.710200
vn 0.003900 -0.004700 1.000000
vn -0.135800 0.693500 0.707500
vn -0.379000 -0.003600 0.925400
vn -0.380400 0.720600 0.579700
vn -0.704300 -0.001900 0.709900
vn -0.581600 0.710400 0.396200
vn -0.922300 0.000000 0.386300
vn -0.727600 0.669100 0.151100
vn -1.000000 0.002000 0.003900
vn -0.750100 0.645600 -0.143300
vn -0.925400 0.003600 -0.379000
vn -0.709700 0.526200 -0.468400
vn -0.709900 0.004700 -0.704300
vn -0.483200 0.503500 -0.716200
vn -0.386300 0.005100 -0.922300
vn -0.166900 0.539800 -0.825000
vn -0.003900 0.004700 -1.000000
vn 0.164200 0.525100 -0.835000
vn 0.379100 0.003500 -0.925400
vn 0.485800 0.481500 -0.729500
vn 0.704300 0.001900 -0.709800
vn 0.720600 0.497700 -0.482600
vn 0.922400 0.000000 -0.386300
vn 0.813100 0.559100 -0.162200
vn 1.000000 -0.001900 -0.003900
vn 0.798900 0.580200 0.158200
vn 0.925400 -0.003600 0.379000
vn 0.678100 0.580100 0.451200
vn 0.709800 -0.004700 0.704300
vn 0.444300 0.605100 0.660500
vn -0.251300 -0.674200 -0.694400
vn 0.277000 -0.675700 -0.683100
vn 0.680000 -0.681000 0.271500
vn -0.652500 -0.673800 -0.346800
vn -0.632600 -0.649000 0.422500
vn -0.662700 -0.678000 0.317900
vn 0.146900 -0.670500 0.727200
vn -0.143800 -0.669900 0.728300
vn -0.237400 0.802700 0.547000
vn 0.210200 0.794900 0.569200
vn 0.604200 0.759600 0.240600
vn 0.647300 0.718000 -0.255800
vn 0.263200 0.692400 -0.671700
vn -0.257200 0.710000 -0.655400
vn -0.618300 0.754800 -0.218800
vn -0.561200 0.789100 0.249700
vn 0.376800 0.842200 -0.385500
vn 0.510700 0.859700 -0.002200
vn 0.333600 0.884200 0.326800
vn 0.011800 0.878700 0.477200
vn -0.351100 0.859000 0.372600
vn -0.508600 0.860900 0.014700
vn -0.752600 -0.641300 0.149500
vn 0.386300 -0.005000 0.922300
vn 0.417600 -0.665600 0.618500
vn 0.623600 -0.665100 0.410900
vn 0.733900 -0.664500 0.140100
vn 0.623200 -0.657200 -0.423900
vn 0.414600 -0.655800 -0.630800
vn 0.142700 -0.654800 -0.742100
vn -0.151100 -0.654300 -0.741000
vn -0.424500 -0.649200 -0.631100
vn -0.632700 -0.649700 -0.421300
vn -0.753700 -0.639900 -0.149600
vn -0.017200 0.832500 -0.553700
vn 0.004500 1.000000 0.002000
vn 0.003000 1.000000 0.006000
vn 0.003000 1.000000 0.004600
vn 0.002400 1.000000 0.006000
vn 0.002400 1.000000 0.005100
vn 0.002000 1.000000 0.006100
vn 0.698600 -0.661100 -0.273700
vn 0.754600 -0.655300 -0.033800
vn 0.684700 -0.646500 -0.336300
vn 0.730600 -0.682500 -0.019300
usemtl None
s 1
f 1/1/1 2/2/1 3/3/1 4/4/1
f 5/1/2 6/2/2 7/3/2 8/4/2
f 9/1/3 10/2/3 11/3/3 12/4/3
f 15/1/4 13/2/4 14/3/4 15/4/4
f 16/1/5 17/2/5 18/3/5 19/4/5
f 20/1/6 21/2/6 22/3/6 23/4/6
f 24/1/7 25/2/7 26/3/7 27/4/7
f 28/1/8 29/2/8 30/3/8 31/4/8
f 32/1/9 33/2/9 34/3/9 35/4/9
f 36/1/10 37/2/10 38/3/10 39/4/10
f 40/1/11 41/2/11 42/3/11 43/4/11
f 44/1/12 45/2/12 46/3/12 47/4/12
f 48/1/13 49/2/13 50/3/13 51/4/13
f 52/1/14 53/2/14 54/3/14 55/4/14
f 56/1/15 57/2/15 58/3/15 59/4/15
f 60/1/16 61/2/16 62/3/16 63/4/16
f 64/1/17 65/2/17 66/3/17 67/4/17
f 68/1/18 69/2/18 70/3/18 71/4/18
f 72/1/19 73/2/19 74/3/19 75/4/19
f 76/1/20 77/2/20 78/3/20 79/4/20
f 80/1/21 81/2/21 82/3/21 83/4/21
f 84/1/22 85/2/22 86/3/22 87/4/22
f 88/1/23 89/2/23 90/3/23 91/4/23
f 92/1/24 93/2/24 94/3/24 95/4/24
f 96/1/25 97/2/25 98/3/25 99/4/25
f 100/1/26 101/2/26 102/3/26 103/4/26
f 104/1/27 105/2/27 106/3/27 107/4/27
f 108/1/28 109/2/28 110/3/28 111/4/28
f 112/1/29 113/2/29 114/3/29 115/4/29
f 116/1/30 117/2/30 118/3/30 119/4/30
f 120/1/31 121/2/31 122/3/31 123/4/31
f 124/1/32 125/2/32 126/3/32 127/4/32
f 128/1/33 129/2/33 130/3/33 131/4/33
f 132/1/34 133/2/34 134/3/34 135/4/34
f 136/1/35 137/2/35 138/3/35 139/4/35
f 140/1/36 141/2/36 142/3/36 143/4/36
f 144/1/37 145/2/37 146/3/37 147/4/37
f 148/1/38 149/2/38 150/3/38 151/4/38
f 152/1/39 153/2/39 154/3/39 155/4/39
f 156/1/40 157/2/40 158/3/40 159/4/40
f 160/1/41 161/2/41 162/3/41 163/4/41
f 164/1/42 165/2/42 166/3/42 167/4/42
f 168/1/43 169/2/43 170/3/43 171/4/43
f 172/1/44 173/2/44 174/3/44 175/4/44
f 176/1/45 177/2/45 178/3/45 179/4/45
f 180/1/46 181/2/46 182/3/46 183/4/46
f 184/1/47 185/2/47 186/3/47 187/4/47
f 188/1/48 189/2/48 190/3/48 191/4/48
f 192/1/49 193/2/49 194/3/49 195/4/49
f 196/1/50 197/2/50 198/3/50 199/4/50
f 200/1/51 201/2/51 202/3/51 203/4/51
f 206/1/52 204/2/52 205/3/52 206/4/52
f 209/1/53 207/2/53 208/3/53 209/4/53
f 212/1/54 210/2/54 211/3/54 212/4/54
f 215/1/55 213/2/55 214/3/55 215/4/55
f 218/1/56 216/2/56 217/3/56 218/4/56
f 221/1/57 219/2/57 220/3/57 221/4/57
f 222/1/58 223/2/58 224/3/58 225/4/58
f 226/1/59 227/2/59 228/3/59 229/4/59
f 230/1/60 231/2/60 232/3/60 233/4/60
f 234/1/61 235/2/61 236/3/61 237/4/61
f 238/1/62 239/2/62 240/3/62 241/4/62
f 242/1/63 243/2/63 244/3/63 245/4/63
f 246/1/64 247/2/64 248/3/64 249/4/64
f 250/1/65 251/2/65 252/3/65 253/4/65
f 254/1/66 255/2/66 256/3/66 257/4/66
f 258/1/67 259/2/67 260/3/67 261/4/67
f 262/1/68 263/2/68 264/3/68 265/4/68
f 266/1/69 267/2/69 268/3/69 269/4/69
f 272/1/70 270/2/70 271/3/70 272/4/70
f 275/1/71 273/2/71 274/3/71 275/4/71
f 278/1/72 276/2/72 277/3/72 278/4/72
f 281/1/73 279/2/73 280/3/73 281/4/73
f 284/1/74 282/2/74 283/3/74 284/4/74
f 287/1/75 285/2/75 286/3/75 287/4/75
f 290/1/76 288/2/76 289/3/76 290/4/76
f 293/1/77 291/2/77 292/3/77 293/4/77
f 296/1/78 294/2/78 295/3/78 296/4/78
f 299/1/79 297/2/79 298/3/79 299/4/79
f 302/1/80 300/2/80 301/3/80 302/4/80
