# Alias OBJ Model File
# Exported from SketchUp, (c) 2000-2012 Trimble Navigation Limited
# File units = meters

mtllib heart.mtl

g Mesh1 Model

usemtl _1
v 5.64315 0 -1.99504
vt 72.9355 203.373
vn -0.33306 0.907611 0.255566
v 5.39657 0.3025 -3.39068
vt 23.4337 231.742
v 4.1123 0 -3.99008
vt -26.0682 203.373
f 1/1/1 2/2/1 3/3/1

v 6.68084 0.605 -2.79128
vt 72.9355 260.11
f 1/1/1 4/4/1 2/2/1

v 6.801 0.457588 -2.11117
vt 97.0583 246.286
f 4/4/1 1/1/1 5/5/1

v 7.174 0 -0
vt 171.939 203.373
f 6/6/1 5/5/1 1/1/1

v 7.174 0.605 -2.14858
vt 104.83 260.11
f 7/7/1 5/5/1 6/6/1

f 7/7/1 4/4/1 5/5/1

v 7.174 0.605 -8.09865
vt 282.441 318.845
vn 0 1 -0
vt 263.025 109.893
vt 282.441 84.5898
f 8/8/2 4/9/2 7/10/2

v 6.14816 0.605 -10.5753
vt 242.053 416.349
f 9/11/2 4/9/2 8/8/2

v 5.14999 0.605 -4.78632
vt 202.755 188.438
f 9/11/2 10/12/2 4/9/2

v 5.12231 0.605 -12.0519
vt 201.666 474.483
f 11/13/2 10/12/2 9/11/2

v 3.61914 0.605 -6.78136
vt 142.486 266.983
f 11/13/2 12/14/2 10/12/2

v 3.587 0.605 -12.6878
vt 141.22 499.52
f 13/15/2 12/14/2 11/13/2

v 2.19312 0.605 -8.63979
vt 86.3433 340.149
f 13/15/2 14/16/2 12/14/2

v 2.05169 0.605 -12.0519
vt 80.7751 474.483
f 15/17/2 14/16/2 13/15/2

v 1.41574 0.605 -10.5166
vt 55.7378 414.037
f 14/16/2 15/17/2 16/18/2

vt -469.276 -87.0697
vn -0.387857 0.907611 -0.160655
v 1.27806 0.376873 -11.4729
vt -436.563 -108.463
vt -403.851 -87.0697
f 15/19/3 17/20/3 16/21/3

v 1.05061 0 -13.0529
vt -490.606 -143.807
f 15/19/3 18/22/3 17/20/3

v 2.63061 0.376873 -12.8255
vt -288.916 -381.204
vn -0.160655 0.907611 -0.387857
vt -234.873 -416.547
vt -256.203 -359.81
f 19/23/4 18/24/4 15/25/4

v 3.587 0 -14.1036
vt -342.959 -416.547
f 20/26/4 18/24/4 19/23/4

vt -342.959 416.547
vn -0.160655 -0.907611 -0.387857
v 2.63061 -0.376873 -12.8255
vt -288.916 381.204
vt -234.873 416.547
f 20/27/5 21/28/5 18/29/5

v 3.587 -0.605 -12.6878
vt -321.629 359.81
f 20/27/5 22/30/5 21/28/5

v 4.54339 -0.376873 -12.8255
vt 27.9746 479.303
vn 0.160655 -0.907611 -0.387857
vt 60.6874 457.909
vt 82.0173 514.646
f 23/31/6 22/32/6 20/33/6

v 5.12231 -0.605 -12.0519
vt -4.73821 457.909
f 24/34/6 22/32/6 23/31/6

v 3.61914 -0.605 -6.78136
vt -142.486 266.983
vn 4.23545e-16 -1 4.92316e-16
vt -141.22 499.52
vt -201.666 474.483
f 25/35/7 22/36/7 24/37/7

v 2.19312 -0.605 -8.63979
vt -86.3433 340.149
f 26/38/7 22/36/7 25/35/7

v 2.05169 -0.605 -12.0519
vt -80.7751 474.483
f 26/38/7 27/39/7 22/36/7

v 1.41574 -0.605 -10.5166
vt -55.7378 414.037
f 27/39/7 26/38/7 28/40/7

vt -281.215 -200.544
vn -0.387857 -0.907611 0.160655
v 1.26046 -0.347714 -9.43791
vt -324.297 -176.415
vt -361.191 -200.544
f 26/41/8 29/42/8 28/43/8

v 1.05061 0 -7.98016
vt -274.435 -143.807
f 26/41/8 30/44/8 29/42/8

v 2.3804 -0.313224 -7.35951
vt -172.819 -232.747
vn -0.33306 -0.907611 0.255566
vt -224.075 -203.373
vt -217.296 -260.11
f 31/45/9 30/46/9 26/47/9

v 2.58146 0 -5.98512
vt -125.072 -203.373
f 32/48/9 30/46/9 31/45/9

vt -125.072 203.373
v 2.3804 0.313224 -7.35951
vt -172.819 232.747
vt -224.075 203.373
f 32/49/1 33/50/1 30/51/1

vt -125.072 260.11
f 32/49/1 12/52/1 33/50/1

v 3.86572 0.3025 -5.38572
vt -75.57 231.742
f 12/52/1 32/49/1 34/53/1

f 3/3/1 34/53/1 32/49/1

vt -26.0682 260.11
f 3/3/1 10/54/1 34/53/1

f 10/54/1 3/3/1 2/2/1

f 4/4/1 10/54/1 2/2/1

f 10/54/1 12/52/1 34/53/1

vt -26.0682 -203.373
v 3.86572 -0.3025 -5.38572
vt -75.57 -231.742
f 3/55/9 32/48/9 35/56/9

vt -125.072 -260.11
f 32/48/9 25/57/9 35/56/9

f 25/57/9 32/48/9 31/45/9

f 25/57/9 31/45/9 26/47/9

v 5.14999 -0.605 -4.78632
vt -26.0682 -260.11
f 36/58/9 35/56/9 25/57/9

f 36/58/9 3/55/9 35/56/9

v 5.39657 -0.3025 -3.39068
vt 23.4337 -231.742
f 3/55/9 36/58/9 37/59/9

v 6.68084 -0.605 -2.79128
vt 72.9355 -260.11
f 38/60/9 37/59/9 36/58/9

vt 72.9355 -203.373
f 38/60/9 1/61/9 37/59/9

v 6.801 -0.457588 -2.11117
vt 97.0583 -246.286
f 1/61/9 38/60/9 39/62/9

v 7.174 -0.605 -2.14858
vt 104.83 -260.11
f 40/63/9 39/62/9 38/60/9

vt 171.939 -203.373
f 6/64/9 39/62/9 40/63/9

f 6/64/9 1/61/9 39/62/9

v 7.547 -0.457588 -2.11117
vt 246.82 160.461
vn 0.33306 -0.907611 0.255566
vt 239.049 146.636
f 41/65/10 6/6/10 40/66/10

v 8.70485 0 -1.99504
vt 270.943 203.373
f 42/67/10 6/6/10 41/65/10

vt 270.943 -203.373
vn 0.33306 0.907611 0.255566
v 7.547 0.457588 -2.11117
vt 246.82 -160.461
f 42/68/11 43/69/11 6/64/11

v 7.66716 0.605 -2.79128
vt 270.943 -146.636
f 42/68/11 44/70/11 43/69/11

v 8.95143 0.3025 -3.39068
vt 320.445 -175.005
f 44/70/11 42/68/11 45/71/11

v 10.2357 0 -3.99008
vt 369.946 -203.373
f 46/72/11 45/71/11 42/68/11

v 9.19801 0.605 -4.78632
vt 369.946 -146.636
f 46/72/11 47/73/11 45/71/11

v 10.4823 0.3025 -5.38572
vt 419.448 -175.005
f 47/73/11 46/72/11 48/74/11

v 11.7665 0 -5.98512
vt 468.95 -203.373
f 49/75/11 48/74/11 46/72/11

v 10.7289 0.605 -6.78136
vt 468.95 -146.636
f 49/75/11 50/76/11 48/74/11

v 11.9676 0.313224 -7.35951
vt 516.697 -173.999
f 50/76/11 49/75/11 51/77/11

v 13.2974 0 -7.98016
vt 567.954 -203.373
f 52/78/11 51/77/11 49/75/11

v 12.1549 0.605 -8.63979
vt 561.174 -146.636
f 52/78/11 53/79/11 51/77/11

vt 490.606 -329.86
vn 0.387857 0.907611 0.160655
v 13.0875 0.347714 -9.43791
vt 540.468 -297.251
vt 497.386 -273.123
f 52/80/12 54/81/12 53/82/12

v 14.348 0 -10.5166
vt 598.692 -329.86
f 55/83/12 54/81/12 52/80/12

v 12.9323 0.605 -10.5166
vt 577.362 -273.123
f 55/83/12 56/84/12 54/81/12

vt 166.35 -617.473
vn 0.387857 0.907611 -0.160655
v 13.0699 0.376873 -11.4729
vt 220.393 -582.13
vt 187.68 -560.736
f 55/85/13 57/86/13 56/87/13

v 13.2974 0 -13.0529
vt 274.435 -617.473
f 55/85/13 58/88/13 57/86/13

vt 166.35 617.473
vn 0.387857 -0.907611 -0.160655
v 13.0699 -0.376873 -11.4729
vt 220.393 582.13
vt 274.435 617.473
f 55/89/14 59/90/14 58/91/14

v 12.9323 -0.605 -10.5166
vt 187.68 560.736
f 55/89/14 60/92/14 59/90/14

vt 598.692 329.86
vn 0.387857 -0.907611 0.160655
v 13.0875 -0.347714 -9.43791
vt 540.468 297.251
vt 577.362 273.123
f 55/93/15 61/94/15 60/95/15

vt 490.606 329.86
f 55/93/15 52/96/15 61/94/15

v 12.1549 -0.605 -8.63979
vt 497.386 273.123
f 52/96/15 62/97/15 61/94/15

vt 567.954 203.373
v 11.9676 -0.313224 -7.35951
vt 516.697 173.999
vt 561.174 146.636
f 52/98/10 63/99/10 62/100/10

vt 468.95 203.373
f 52/98/10 49/101/10 63/99/10

v 10.7289 -0.605 -6.78136
vt 468.95 146.636
f 49/101/10 64/102/10 63/99/10

v 10.4823 -0.3025 -5.38572
vt 419.448 175.005
f 64/102/10 49/101/10 65/103/10

vt 369.946 203.373
f 49/101/10 46/104/10 65/103/10

v 9.19801 -0.605 -4.78632
vt 369.946 146.636
f 46/104/10 66/105/10 65/103/10

v 8.95143 -0.3025 -3.39068
vt 320.445 175.005
f 66/105/10 46/104/10 67/106/10

f 46/104/10 42/67/10 67/106/10

v 7.66716 -0.605 -2.79128
vt 270.943 146.636
f 42/67/10 68/107/10 67/106/10

f 68/107/10 42/67/10 41/65/10

f 68/107/10 41/65/10 40/66/10

vt -282.441 84.5898
v 8.19984 -0.605 -10.5753
vt -322.829 416.349
vt -301.857 109.893
f 40/108/7 69/109/7 68/110/7

v 7.174 -0.605 -8.09865
vt -282.441 318.845
f 40/108/7 70/111/7 69/109/7

vt -263.025 109.893
f 38/112/7 70/111/7 40/108/7

v 6.14816 -0.605 -10.5753
vt -242.053 416.349
f 38/112/7 71/113/7 70/111/7

vt -202.755 188.438
f 36/114/7 71/113/7 38/112/7

f 36/114/7 24/37/7 71/113/7

f 25/35/7 24/37/7 36/114/7

vt 203.826 375.689
vn 0.380356 -0.886287 -0.264245
vt 274.612 375.689
v 6.13592 -0.306108 -11.5954
vt 237.084 401.097
f 71/115/16 24/116/16 72/117/16

vt 284.996 388.57
vn 0.35715 -0.913484 -0.194912
vt 319.889 359.648
v 6.12339 0 -13.0529
vt 335.604 418.189
f 72/118/17 24/119/17 73/120/17

vt -26.0682 514.646
f 73/121/6 24/34/6 23/31/6

f 73/121/6 23/31/6 20/33/6

vt -26.0682 -514.646
vn 0.160655 0.907611 -0.387857
vt 82.0173 -514.646
v 4.54339 0.376873 -12.8255
vt 27.9746 -479.303
f 73/122/18 20/123/18 74/124/18

vt 60.6874 -457.909
f 74/124/18 20/123/18 13/125/18

vt -321.629 -359.81
f 20/26/4 19/23/4 13/126/4

f 13/126/4 19/23/4 15/25/4

vt -4.73821 -457.909
f 11/127/18 74/124/18 13/125/18

f 73/122/18 74/124/18 11/127/18

v 6.13592 0.306108 -11.5954
vt 284.996 -388.57
vn 0.35715 0.913484 -0.194912
vt 335.604 -418.189
vt 319.889 -359.648
f 75/128/19 73/129/19 11/130/19

v 7.174 0 -10.5166
vt 274.435 -365.853
vn 0.451665 0.872352 -0.187086
vt 382.521 -365.853
vt 329.315 -341.201
f 76/131/20 73/132/20 75/133/20

vt 274.435 365.853
vn 0.451665 -0.872352 -0.187086
vt 329.315 341.201
vt 382.521 365.853
f 76/134/21 72/135/21 73/136/21

vt 245.858 361.64
vn 0.502559 -0.828018 -0.248638
vt 265.839 319.159
vt 302.049 340.146
f 76/137/22 71/138/22 72/139/22

vt 274.435 351.014
vn 0.505594 -0.836969 -0.209424
vt 186.488 307.489
vt 292.026 307.489
f 76/140/23 70/141/23 71/142/23

vt -508.197 -129.311
vn -0.505594 -0.836969 -0.209424
vt -402.659 -129.311
vt -490.606 -85.786
f 69/143/24 70/144/24 76/145/24

v 8.21208 -0.306108 -11.5954
vt -552.541 -79.0839
vn -0.502559 -0.828018 -0.248638
vt -516.33 -100.071
vt -496.349 -57.5903
f 77/146/25 69/147/25 76/148/25

v 9.22569 -0.605 -12.0519
vt -596.908 -35.472
vn -0.380356 -0.886287 -0.264245
vt -526.122 -35.472
vt -559.38 -10.064
f 78/149/26 69/150/26 77/151/26

vt -362.126 188.438
vt -363.216 474.483
f 66/152/7 69/109/7 78/153/7

f 68/110/7 69/109/7 66/152/7

f 66/105/10 67/106/10 68/107/10

vt -422.396 266.983
f 66/152/7 78/153/7 64/154/7

v 10.761 -0.605 -12.6878
vt -423.661 499.52
f 64/154/7 78/153/7 79/155/7

vt -582.57 261.71
vt -517.145 261.71
v 9.80461 -0.376873 -12.8255
vt -549.857 283.104
f 79/156/5 78/157/5 80/158/5

v 8.22461 0 -13.0529
vt -495.815 318.447
f 80/158/5 78/157/5 81/159/5

vt -590.493 -93.3007
vn -0.35715 -0.913484 -0.194912
vt -555.601 -64.3792
vt -606.209 -34.7596
f 78/160/27 77/161/27 81/162/27

vt -598.692 -89.4127
vn -0.451665 -0.872352 -0.187086
vt -545.486 -114.064
vt -490.606 -89.4127
f 81/163/28 77/164/28 76/165/28

vt -598.692 89.4127
vn -0.451665 0.872352 -0.187086
vt -490.606 89.4127
v 8.21208 0.306108 -11.5954
vt -545.486 114.064
f 81/166/29 76/167/29 82/168/29

vt -552.541 79.0839
vn -0.502559 0.828018 -0.248638
vt -496.349 57.5903
v 8.19984 0.605 -10.5753
vt -516.33 100.071
f 82/169/30 76/170/30 83/171/30

vt -508.197 129.311
vn -0.505594 0.836969 -0.209424
vt -490.606 85.786
vt -402.659 129.311
f 83/172/31 76/173/31 8/174/31

vt 274.435 -351.014
vn 0.505594 0.836969 -0.209424
vt 292.026 -307.489
vt 186.488 -307.489
f 76/175/32 9/176/32 8/177/32

vt 245.858 -361.64
vn 0.502559 0.828018 -0.248638
vt 302.049 -340.146
vt 265.839 -319.159
f 76/178/33 75/179/33 9/180/33

vt 203.826 -375.689
vn 0.380356 0.886287 -0.264245
vt 237.084 -401.097
vt 274.612 -375.689
f 9/181/34 75/182/34 11/183/34

vt 301.857 109.893
vt 322.829 416.349
f 8/8/2 44/184/2 83/185/2

f 8/8/2 7/10/2 44/184/2

vt 239.049 -146.636
f 44/70/11 7/186/11 43/69/11

f 43/69/11 7/186/11 6/64/11

vt 362.126 188.438
f 83/185/2 44/184/2 47/187/2

f 47/73/11 44/70/11 45/71/11

v 9.22569 0.605 -12.0519
vt 363.216 474.483
f 83/185/2 47/187/2 84/188/2

vt 422.396 266.983
f 84/188/2 47/187/2 50/189/2

f 50/76/11 47/73/11 48/74/11

v 10.761 0.605 -12.6878
vt 423.661 499.52
f 84/188/2 50/189/2 85/190/2

vt 478.539 340.149
f 85/190/2 50/189/2 53/191/2

f 53/79/11 50/76/11 51/77/11

v 12.2963 0.605 -12.0519
vt 484.107 474.483
f 85/190/2 53/191/2 86/192/2

vt 509.144 414.037
f 86/192/2 53/191/2 56/193/2

f 54/81/12 56/84/12 53/82/12

vt 253.105 -560.736
f 57/86/13 86/194/13 56/87/13

f 58/88/13 86/194/13 57/86/13

vt -287.01 -612.746
v 11.7174 0.376873 -12.8255
vt -232.967 -577.403
vt -265.68 -556.009
f 58/195/18 87/196/18 86/197/18

v 10.761 0 -14.1036
vt -178.924 -612.746
f 58/195/18 88/198/18 87/196/18

vt -287.01 612.746
v 11.7174 -0.376873 -12.8255
vt -232.967 577.403
vt -178.924 612.746
f 58/199/6 89/200/6 88/201/6

v 12.2963 -0.605 -12.0519
vt -265.68 556.009
f 58/199/6 90/202/6 89/200/6

vt 253.105 560.736
f 58/91/14 59/90/14 90/203/14

f 59/90/14 60/92/14 90/203/14

vt -478.539 340.149
vt -484.107 474.483
vt -509.144 414.037
f 62/204/7 90/205/7 60/206/7

f 62/204/7 79/155/7 90/205/7

f 64/154/7 79/155/7 62/204/7

f 62/100/10 63/99/10 64/102/10

vt -200.254 556.009
f 90/202/6 79/207/6 89/200/6

f 89/200/6 79/207/6 88/201/6

vt -603.9 318.447
f 88/208/5 79/156/5 80/158/5

f 88/208/5 80/158/5 81/159/5

vt -603.9 -318.447
vt -495.815 -318.447
v 9.80461 0.376873 -12.8255
vt -549.857 -283.104
f 88/209/4 81/210/4 91/211/4

vt -517.145 -261.71
f 91/211/4 81/210/4 84/212/4

vt -590.493 93.3007
vn -0.35715 0.913484 -0.194912
vt -606.209 34.7596
vt -555.601 64.3792
f 84/213/35 81/214/35 82/215/35

vt -596.908 35.472
vn -0.380356 0.886287 -0.264245
vt -559.38 10.064
vt -526.122 35.472
f 84/216/36 82/217/36 83/218/36

vt -582.57 -261.71
f 85/219/4 91/211/4 84/212/4

f 85/219/4 88/209/4 91/211/4

vt -200.254 -556.009
f 87/196/18 88/198/18 85/220/18

f 86/197/18 87/196/18 85/220/18

f 61/94/15 62/97/15 60/95/15

f 64/102/10 65/103/10 66/105/10

f 1/61/9 3/55/9 37/59/9

vt -217.296 260.11
f 12/52/1 14/221/1 33/50/1

f 33/50/1 14/221/1 30/51/1

vt -281.215 200.544
vn -0.387857 0.907611 0.160655
v 1.26046 0.347714 -9.43791
vt -324.297 176.415
vt -274.435 143.807
f 14/222/37 92/223/37 30/224/37

vt -361.191 200.544
f 14/222/37 16/225/37 92/223/37

v 0 0 -10.5166
vt -382.521 143.807
f 16/225/37 93/226/37 92/223/37

vt -382.521 -143.807
f 16/21/3 17/20/3 93/227/3

f 17/20/3 18/22/3 93/227/3

v 1.27806 -0.376873 -11.4729
vt -436.563 108.463
vn -0.387857 -0.907611 -0.160655
vt -490.606 143.807
f 94/228/38 93/226/38 18/229/38

vt -403.851 87.0697
f 28/230/38 93/226/38 94/228/38

f 28/43/8 29/42/8 93/227/8

f 29/42/8 30/44/8 93/227/8

f 92/223/37 93/226/37 30/224/37

vt -469.276 87.0697
f 27/231/38 28/230/38 94/228/38

f 27/231/38 94/228/38 18/229/38

vt -256.203 359.81
f 21/28/5 27/232/5 18/29/5

f 22/30/5 27/232/5 21/28/5

